<svg width="312" height="72" viewBox="0 0 312 72" fill="none" xmlns="http://www.w3.org/2000/svg" role="img" aria-labelledby="logoTitle logoDesc">
  <title id="logoTitle">Portfoy Pulse</title>
  <desc id="logoDesc">Gayrimenkul odakli lead sistemi markasi icin logo</desc>
  <rect x="2" y="2" width="68" height="68" rx="22" fill="#FFF6EF"/>
  <rect x="2" y="2" width="68" height="68" rx="22" stroke="#E8D8CA" stroke-width="2"/>
  <path d="M18 45L36 21L54 45" stroke="#B6522E" stroke-width="6" stroke-linecap="round" stroke-linejoin="round"/>
  <path d="M24 45V31L36 39L48 31V45" stroke="#204439" stroke-width="5" stroke-linecap="round" stroke-linejoin="round"/>
  <circle cx="52" cy="23" r="6" fill="#B6522E"/>
  <path d="M92 29.5H111.5C120.06 29.5 125 34.15 125 41.74C125 49.18 120.06 53.9 111.5 53.9H101.85V66H92V29.5ZM110.56 46.16C113.86 46.16 115.22 44.36 115.22 41.74C115.22 39.05 113.86 37.24 110.56 37.24H101.85V46.16H110.56Z" fill="#181511"/>
  <path d="M130.982 47.53C130.982 36.41 138.852 28.6 149.902 28.6C160.882 28.6 168.822 36.41 168.822 47.53C168.822 58.65 160.882 66.83 149.902 66.83C138.852 66.83 130.982 58.65 130.982 47.53ZM158.772 47.53C158.772 41.29 154.842 37.45 149.902 37.45C144.892 37.45 140.962 41.29 140.962 47.53C140.962 53.77 144.892 57.98 149.902 57.98C154.842 57.98 158.772 53.77 158.772 47.53Z" fill="#181511"/>
  <path d="M176.118 29.5H186.048V57.35H202.308V66H176.118V29.5Z" fill="#181511"/>
  <path d="M207.4 29.5H217.33V66H207.4V29.5Z" fill="#181511"/>
  <path d="M224.642 29.5H234.572V57.35H250.832V66H224.642V29.5Z" fill="#181511"/>
  <path d="M255.924 29.5H281.984V37.74H265.854V43.67H280.464V51.77H265.854V57.76H282.404V66H255.924V29.5Z" fill="#181511"/>
  <path d="M286.419 60.76L291.639 53.95C294.519 56.3 297.469 57.98 300.969 57.98C303.289 57.98 304.439 57.21 304.439 55.67C304.439 54.06 302.879 53.53 298.589 52.05C291.869 49.74 287.119 47.04 287.119 40.41C287.119 33.69 292.479 28.6 300.269 28.6C305.629 28.6 310.029 30.14 313.609 33.02L308.329 39.69C305.629 37.73 302.989 36.69 300.029 36.69C297.979 36.69 296.919 37.45 296.919 38.85C296.919 40.37 298.199 40.97 302.869 42.51C310.109 44.89 314.309 47.95 314.309 54.04C314.309 61.42 308.739 66.83 300.609 66.83C294.379 66.83 289.729 64.94 286.419 60.76Z" fill="#181511"/>
</svg>

